<?xml version="1.0" encoding="UTF-8" standalone="no"?>
<!DOCTYPE svg PUBLIC "-//W3C//DTD SVG 1.0//EN" "http://www.w3.org/TR/2001/PR-SVG-20010719/DTD/svg10.dtd">
<svg width="46cm" height="28cm" viewBox="28 228 919 548" xmlns="http://www.w3.org/2000/svg" xmlns:xlink="http://www.w3.org/1999/xlink">
  <g>
    <rect style="fill: #ffffff" x="315.442" y="477.828" width="97.3" height="36"/>
    <rect style="fill: none; fill-opacity:0; stroke-width: 2; stroke: #000000" x="315.442" y="477.828" width="97.3" height="36"/>
    <text font-size="12.8" style="fill: #000000;text-anchor:middle;font-family:monospace;font-style:normal;font-weight:normal" x="364.092" y="499.028">CLASSROOM</text>
  </g>
  <g>
    <rect style="fill: #ffffff" x="616.978" y="477.746" width="105" height="36"/>
    <rect style="fill: none; fill-opacity:0; stroke-width: 2; stroke: #000000" x="616.978" y="477.746" width="105" height="36"/>
    <text font-size="12.8" style="fill: #000000;text-anchor:middle;font-family:monospace;font-style:normal;font-weight:normal" x="669.478" y="498.946">ASSIGNMENT</text>
  </g>
  <g>
    <rect style="fill: #ffffff" x="334.696" y="638.94" width="58.8" height="36"/>
    <rect style="fill: none; fill-opacity:0; stroke-width: 2; stroke: #000000" x="334.696" y="638.94" width="58.8" height="36"/>
    <text font-size="12.8" style="fill: #000000;text-anchor:middle;font-family:monospace;font-style:normal;font-weight:normal" x="364.096" y="660.14">USER</text>
  </g>
  <g>
    <rect style="fill: #ffffff" x="29.2932" y="477.81" width="120.4" height="36"/>
    <rect style="fill: none; fill-opacity:0; stroke-width: 2; stroke: #000000" x="29.2932" y="477.81" width="120.4" height="36"/>
    <text font-size="12.8" style="fill: #000000;text-anchor:middle;font-family:monospace;font-style:normal;font-weight:normal" x="89.4932" y="499.01">ORGANIZATION</text>
  </g>
  <g>
    <polygon style="fill: #ffffff" points="478.626,495.75 510.176,476.82 541.726,495.75 510.176,514.68 "/>
    <polygon style="fill: none; fill-opacity:0; stroke-width: 2; stroke: #000000" points="478.626,495.75 510.176,476.82 541.726,495.75 510.176,514.68 "/>
    <text font-size="12.8" style="fill: #000000;text-anchor:end;font-family:monospace;font-style:normal;font-weight:normal" x="472.626" y="489.75">1</text>
    <text font-size="12.8" style="fill: #000000;text-anchor:start;font-family:monospace;font-style:normal;font-weight:normal" x="547.726" y="489.75">N</text>
    <text font-size="12.8" style="fill: #000000;text-anchor:middle;font-family:monospace;font-style:normal;font-weight:normal" x="510.176" y="498.95">has</text>
  </g>
  <polyline style="fill: none; fill-opacity:0; stroke-width: 2; stroke: #000000" points="413.748,495.828 445.691,495.828 445.691,495.75 477.634,495.75 "/>
  <g>
    <polyline style="fill: none; fill-opacity:0; stroke-width: 2; stroke: #000000" points="615.972,498.246 611.876,498.246 611.876,498.25 542.732,498.25 "/>
    <polyline style="fill: none; fill-opacity:0; stroke-width: 2; stroke: #000000" points="615.972,493.246 606.876,493.246 606.876,493.25 542.732,493.25 "/>
  </g>
  <g>
    <polygon style="fill: #ffffff" points="206.588,495.784 238.138,476.854 269.688,495.784 238.138,514.714 "/>
    <polygon style="fill: none; fill-opacity:0; stroke-width: 2; stroke: #000000" points="206.588,495.784 238.138,476.854 269.688,495.784 238.138,514.714 "/>
    <text font-size="12.8" style="fill: #000000;text-anchor:end;font-family:monospace;font-style:normal;font-weight:normal" x="200.588" y="489.784">1</text>
    <text font-size="12.8" style="fill: #000000;text-anchor:start;font-family:monospace;font-style:normal;font-weight:normal" x="275.688" y="489.784">N</text>
    <text font-size="12.8" style="fill: #000000;text-anchor:middle;font-family:monospace;font-style:normal;font-weight:normal" x="238.138" y="498.984">has</text>
  </g>
  <g>
    <polygon style="fill: #ffffff" points="332.572,573.064 364.122,554.134 395.672,573.064 364.122,591.994 "/>
    <polygon style="fill: none; fill-opacity:0; stroke-width: 2; stroke: #000000" points="332.572,573.064 364.122,554.134 395.672,573.064 364.122,591.994 "/>
    <text font-size="12.8" style="fill: #000000;text-anchor:start;font-family:monospace;font-style:normal;font-weight:normal" x="368.122" y="548.134">N</text>
    <text font-size="12.8" style="fill: #000000;text-anchor:start;font-family:monospace;font-style:normal;font-weight:normal" x="368.122" y="613.994">N</text>
    <text font-size="12.8" style="fill: #000000;text-anchor:middle;font-family:monospace;font-style:normal;font-weight:normal" x="364.122" y="576.264">has</text>
  </g>
  <polyline style="fill: none; fill-opacity:0; stroke-width: 2; stroke: #000000" points="364.092,513.828 364.092,533.981 364.122,533.981 364.122,554.134 "/>
  <polyline style="fill: none; fill-opacity:0; stroke-width: 2; stroke: #000000" points="364.122,591.994 364.122,615.467 364.096,615.467 364.096,638.94 "/>
  <g>
    <ellipse style="fill: #ffffff" cx="295.486" cy="589.722" rx="35.4" ry="18"/>
    <ellipse style="fill: none; fill-opacity:0; stroke-width: 2; stroke: #000000" cx="295.486" cy="589.722" rx="35.4" ry="18"/>
    <text font-size="12.8" style="fill: #000000;text-anchor:middle;font-family:monospace;font-style:normal;font-weight:normal" x="295.486" y="592.922">type</text>
  </g>
  <line style="fill: none; fill-opacity:0; stroke-width: 2; stroke: #000000" x1="330.64" y1="584.939" x2="348.346" y2="582.53"/>
  <g>
    <polygon style="fill: #ffffff" points="478.586,656.936 510.136,638.006 541.686,656.936 510.136,675.866 "/>
    <polygon style="fill: none; fill-opacity:0; stroke-width: 2; stroke: #000000" points="478.586,656.936 510.136,638.006 541.686,656.936 510.136,675.866 "/>
    <text font-size="12.8" style="fill: #000000;text-anchor:end;font-family:monospace;font-style:normal;font-weight:normal" x="472.586" y="650.936">N</text>
    <text font-size="12.8" style="fill: #000000;text-anchor:start;font-family:monospace;font-style:normal;font-weight:normal" x="547.686" y="650.936">N</text>
    <text font-size="12.8" style="fill: #000000;text-anchor:middle;font-family:monospace;font-style:normal;font-weight:normal" x="510.136" y="660.136">has</text>
  </g>
  <polyline style="fill: none; fill-opacity:0; stroke-width: 2; stroke: #000000" points="393.496,656.94 435.545,656.94 435.545,656.936 477.594,656.936 "/>
  <polyline style="fill: none; fill-opacity:0; stroke-width: 2; stroke: #000000" points="541.686,656.936 541.686,657.628 669.478,657.628 669.478,513.746 "/>
  <text font-size="9.03111" style="fill: #000000;text-anchor:start;font-family:sans-serif;font-style:oblique;font-weight:normal" x="31.3936" y="474.914">
    <tspan x="31.3936" y="474.914">From GitHub...</tspan>
  </text>
  <g>
    <ellipse style="fill: #ffffff" cx="333.13" cy="400.414" rx="31.55" ry="18"/>
    <ellipse style="fill: none; fill-opacity:0; stroke-width: 2; stroke: #000000" cx="333.13" cy="400.414" rx="31.55" ry="18"/>
    <text font-size="12.8" style="fill: #000000;text-anchor:middle;font-family:monospace;font-style:normal;font-weight:normal" x="333.13" y="403.614">cid</text>
    <line style="fill: none; fill-opacity:0; stroke-width: 2; stroke: #000000" x1="321.58" y1="408.414" x2="344.68" y2="408.414"/>
  </g>
  <g>
    <ellipse style="fill: #ffffff" cx="424.978" cy="402.198" rx="35.4" ry="18"/>
    <ellipse style="fill: none; fill-opacity:0; stroke-width: 2; stroke: #000000" cx="424.978" cy="402.198" rx="35.4" ry="18"/>
    <text font-size="12.8" style="fill: #000000;text-anchor:middle;font-family:monospace;font-style:normal;font-weight:normal" x="424.978" y="405.398">name</text>
  </g>
  <g>
    <ellipse style="fill: #ffffff" cx="279.502" cy="442.63" rx="62.35" ry="18"/>
    <ellipse style="fill: none; fill-opacity:0; stroke-width: 2; stroke: #000000" cx="279.502" cy="442.63" rx="62.35" ry="18"/>
    <text font-size="12.8" style="fill: #000000;text-anchor:middle;font-family:monospace;font-style:normal;font-weight:normal" x="279.502" y="445.83">description</text>
  </g>
  <g>
    <ellipse style="fill: #ffffff" cx="443.882" cy="693.37" rx="43.1" ry="18"/>
    <ellipse style="fill: none; fill-opacity:0; stroke-width: 2; stroke: #000000" cx="443.882" cy="693.37" rx="43.1" ry="18"/>
    <text font-size="12.8" style="fill: #000000;text-anchor:middle;font-family:monospace;font-style:normal;font-weight:normal" x="443.882" y="696.57">avatar</text>
  </g>
  <g>
    <ellipse style="fill: #ffffff" cx="384.552" cy="365.74" rx="46.95" ry="18"/>
    <ellipse style="fill: none; fill-opacity:0; stroke-width: 2; stroke: #000000" cx="384.552" cy="365.74" rx="46.95" ry="18"/>
    <text font-size="12.8" style="fill: #000000;text-anchor:middle;font-family:monospace;font-style:normal;font-weight:normal" x="384.552" y="368.94">picture</text>
  </g>
  <line style="fill: none; fill-opacity:0; stroke-width: 2; stroke: #000000" x1="339.181" y1="419.061" x2="357.984" y2="477.006"/>
  <line style="fill: none; fill-opacity:0; stroke-width: 2; stroke: #000000" x1="381.572" y1="384.685" x2="367.08" y2="476.828"/>
  <line style="fill: none; fill-opacity:0; stroke-width: 2; stroke: #000000" x1="413.317" y1="420.131" x2="375.984" y2="477.541"/>
  <line style="fill: none; fill-opacity:0; stroke-width: 2; stroke: #000000" x1="306.36" y1="459.521" x2="333.94" y2="476.866"/>
  <polyline style="fill: none; fill-opacity:0; stroke-width: 2; stroke: #000000" points="150.701,495.81 178.644,495.81 178.644,495.784 206.588,495.784 "/>
  <polyline style="fill: none; fill-opacity:0; stroke-width: 2; stroke: #000000" points="315.442,495.828 292.565,495.828 292.565,495.784 269.688,495.784 "/>
  <line style="fill: none; fill-opacity:0; stroke-width: 2; stroke: #000000" x1="394.493" y1="670.819" x2="413.879" y2="679.671"/>
  <g>
    <ellipse style="fill: #ffffff" cx="803.114" cy="399.33" rx="31.55" ry="18"/>
    <ellipse style="fill: none; fill-opacity:0; stroke-width: 2; stroke: #000000" cx="803.114" cy="399.33" rx="31.55" ry="18"/>
    <text font-size="12.8" style="fill: #000000;text-anchor:middle;font-family:monospace;font-style:normal;font-weight:normal" x="803.114" y="402.53">aid</text>
    <line style="fill: none; fill-opacity:0; stroke-width: 2; stroke: #000000" x1="791.564" y1="407.33" x2="814.664" y2="407.33"/>
  </g>
  <g>
    <ellipse style="fill: #ffffff" cx="807.228" cy="439.23" rx="35.4" ry="18"/>
    <ellipse style="fill: none; fill-opacity:0; stroke-width: 2; stroke: #000000" cx="807.228" cy="439.23" rx="35.4" ry="18"/>
    <text font-size="12.8" style="fill: #000000;text-anchor:middle;font-family:monospace;font-style:normal;font-weight:normal" x="807.228" y="442.43">name</text>
  </g>
  <g>
    <ellipse style="fill: #ffffff" cx="883.476" cy="466.008" rx="62.35" ry="18"/>
    <ellipse style="fill: none; fill-opacity:0; stroke-width: 2; stroke: #000000" cx="883.476" cy="466.008" rx="62.35" ry="18"/>
    <text font-size="12.8" style="fill: #000000;text-anchor:middle;font-family:monospace;font-style:normal;font-weight:normal" x="883.476" y="469.208">description</text>
  </g>
  <g>
    <ellipse style="fill: #ffffff" cx="846.678" cy="536.526" rx="62.35" ry="18"/>
    <ellipse style="fill: none; fill-opacity:0; stroke-width: 2; stroke: #000000" cx="846.678" cy="536.526" rx="62.35" ry="18"/>
    <text font-size="12.8" style="fill: #000000;text-anchor:middle;font-family:monospace;font-style:normal;font-weight:normal" x="846.678" y="539.726">repo_prefix</text>
  </g>
  <g>
    <ellipse style="fill: #ffffff" cx="794.624" cy="501.48" rx="35.4" ry="18"/>
    <ellipse style="fill: none; fill-opacity:0; stroke-width: 2; stroke: #000000" cx="794.624" cy="501.48" rx="35.4" ry="18"/>
    <text font-size="12.8" style="fill: #000000;text-anchor:middle;font-family:monospace;font-style:normal;font-weight:normal" x="794.624" y="504.68">type</text>
  </g>
  <g>
    <ellipse style="fill: #ffffff" cx="774.326" cy="567.626" rx="50.8" ry="18"/>
    <ellipse style="fill: none; fill-opacity:0; stroke-width: 2; stroke: #000000" cx="774.326" cy="567.626" rx="50.8" ry="18"/>
    <text font-size="12.8" style="fill: #000000;text-anchor:middle;font-family:monospace;font-style:normal;font-weight:normal" x="774.326" y="570.826">template</text>
  </g>
  <line style="fill: none; fill-opacity:0; stroke-width: 2; stroke: #000000" x1="758.373" y1="499.819" x2="722.984" y2="498.198"/>
  <line style="fill: none; fill-opacity:0; stroke-width: 2; stroke: #000000" x1="750.367" y1="551.2" x2="697.187" y2="514.743"/>
  <line style="fill: none; fill-opacity:0; stroke-width: 2; stroke: #000000" x1="796.959" y1="525.084" x2="722.971" y2="508.057"/>
  <line style="fill: none; fill-opacity:0; stroke-width: 2; stroke: #000000" x1="782.739" y1="414.03" x2="695.709" y2="476.821"/>
  <line style="fill: none; fill-opacity:0; stroke-width: 2; stroke: #000000" x1="778.76" y1="450.91" x2="715.787" y2="476.746"/>
  <line style="fill: none; fill-opacity:0; stroke-width: 2; stroke: #000000" x1="826.306" y1="473.953" x2="722.984" y2="488.311"/>
  <g>
    <rect style="fill: #ffffff" x="624.626" y="285.992" width="89.6" height="36"/>
    <rect style="fill: none; fill-opacity:0; stroke-width: 2; stroke: #000000" x="624.626" y="285.992" width="89.6" height="36"/>
    <rect style="fill: none; fill-opacity:0; stroke-width: 2; stroke: #000000" x="629.626" y="290.992" width="79.6" height="26"/>
    <text font-size="12.8" style="fill: #000000;text-anchor:middle;font-family:monospace;font-style:normal;font-weight:normal" x="669.426" y="307.192">DELIVERY</text>
  </g>
  <g>
    <polygon style="fill: #ffffff" points="637.876,387.664 669.426,368.734 700.976,387.664 669.426,406.594 "/>
    <polygon style="fill: none; fill-opacity:0; stroke-width: 2; stroke: #000000" points="637.876,387.664 669.426,368.734 700.976,387.664 669.426,406.594 "/>
    <text font-size="12.8" style="fill: #000000;text-anchor:start;font-family:monospace;font-style:normal;font-weight:normal" x="673.426" y="362.734">N</text>
    <text font-size="12.8" style="fill: #000000;text-anchor:start;font-family:monospace;font-style:normal;font-weight:normal" x="673.426" y="428.594">1</text>
    <text font-size="12.8" style="fill: #000000;text-anchor:middle;font-family:monospace;font-style:normal;font-weight:normal" x="669.426" y="390.864">has</text>
  </g>
  <g>
    <polyline style="fill: none; fill-opacity:0; stroke-width: 2; stroke: #000000" points="666.926,368.734 666.926,367.734 666.926,327.992 666.926,321.992 "/>
    <polyline style="fill: none; fill-opacity:0; stroke-width: 2; stroke: #000000" points="671.926,368.734 671.926,362.734 671.926,322.992 671.926,321.992 "/>
  </g>
  <polyline style="fill: none; fill-opacity:0; stroke-width: 2; stroke: #000000" points="669.426,406.594 669.426,441.665 669.478,441.665 669.478,476.737 "/>
  <g>
    <ellipse style="fill: #ffffff" cx="621.254" cy="247.506" rx="31.55" ry="18"/>
    <ellipse style="fill: none; fill-opacity:0; stroke-width: 2; stroke: #000000" cx="621.254" cy="247.506" rx="31.55" ry="18"/>
    <text font-size="12.8" style="fill: #000000;text-anchor:middle;font-family:monospace;font-style:normal;font-weight:normal" x="621.254" y="250.706">tag</text>
    <line style="fill: none; fill-opacity:0; stroke-width: 2; stroke-dasharray: 6; stroke: #000000" x1="609.704" y1="255.506" x2="632.804" y2="255.506"/>
  </g>
  <g>
    <ellipse style="fill: #ffffff" cx="718.856" cy="249.038" rx="50.8" ry="18"/>
    <ellipse style="fill: none; fill-opacity:0; stroke-width: 2; stroke: #000000" cx="718.856" cy="249.038" rx="50.8" ry="18"/>
    <text font-size="12.8" style="fill: #000000;text-anchor:middle;font-family:monospace;font-style:normal;font-weight:normal" x="718.856" y="252.238">due_date</text>
  </g>
  <line style="fill: none; fill-opacity:0; stroke-width: 2; stroke: #000000" x1="635.702" y1="264.448" x2="653.231" y2="285.002"/>
  <line style="fill: none; fill-opacity:0; stroke-width: 2; stroke: #000000" x1="702.77" y1="266.922" x2="686.52" y2="284.988"/>
  <g>
    <ellipse style="fill: #ffffff" cx="391.588" cy="724.918" rx="35.4" ry="18"/>
    <ellipse style="fill: none; fill-opacity:0; stroke-width: 2; stroke: #000000" cx="391.588" cy="724.918" rx="35.4" ry="18"/>
    <text font-size="12.8" style="fill: #000000;text-anchor:middle;font-family:monospace;font-style:normal;font-weight:normal" x="391.588" y="728.118">name</text>
  </g>
  <g>
    <ellipse style="fill: #ffffff" cx="338.416" cy="756.796" rx="31.55" ry="18"/>
    <ellipse style="fill: none; fill-opacity:0; stroke-width: 2; stroke: #000000" cx="338.416" cy="756.796" rx="31.55" ry="18"/>
    <text font-size="12.8" style="fill: #000000;text-anchor:middle;font-family:monospace;font-style:normal;font-weight:normal" x="338.416" y="759.996">uid</text>
    <line style="fill: none; fill-opacity:0; stroke-width: 2; stroke: #000000" x1="326.866" y1="764.796" x2="349.966" y2="764.796"/>
  </g>
  <line style="fill: none; fill-opacity:0; stroke-width: 2; stroke: #000000" x1="343.247" y1="738.012" x2="359.218" y2="675.907"/>
  <line style="fill: none; fill-opacity:0; stroke-width: 2; stroke: #000000" x1="384.081" y1="706.355" x2="371.781" y2="675.943"/>
  <g>
    <ellipse style="fill: #ffffff" cx="303.91" cy="720.7" rx="39.25" ry="18"/>
    <ellipse style="fill: none; fill-opacity:0; stroke-width: 2; stroke: #000000" cx="303.91" cy="720.7" rx="39.25" ry="18"/>
    <text font-size="12.8" style="fill: #000000;text-anchor:middle;font-family:monospace;font-style:normal;font-weight:normal" x="303.91" y="723.9">gh_id</text>
  </g>
  <line style="fill: none; fill-opacity:0; stroke-width: 2; stroke: #000000" x1="320.161" y1="703.484" x2="346.162" y2="675.939"/>
  <g>
    <ellipse style="fill: #ffffff" cx="266.972" cy="679.744" rx="50.8" ry="18"/>
    <ellipse style="fill: none; fill-opacity:0; stroke-width: 2; stroke: #000000" cx="266.972" cy="679.744" rx="50.8" ry="18"/>
    <text font-size="12.8" style="fill: #000000;text-anchor:middle;font-family:monospace;font-style:normal;font-weight:normal" x="266.972" y="682.944">gh_token</text>
  </g>
  <line style="fill: none; fill-opacity:0; stroke-width: 2; stroke: #000000" x1="310.282" y1="669.575" x2="333.691" y2="664.079"/>
</svg>
