<?xml version="1.0" encoding="UTF-8" standalone="no"?>
<!DOCTYPE svg PUBLIC "-//W3C//DTD SVG 1.0//EN" "http://www.w3.org/TR/2001/PR-SVG-20010719/DTD/svg10.dtd">
<svg width="46cm" height="28cm" viewBox="28 228 919 548" xmlns="http://www.w3.org/2000/svg" xmlns:xlink="http://www.w3.org/1999/xlink">
  <g>
    <rect style="fill: #ffffff" x="315.442" y="477.828" width="97.3" height="36"/>
    <rect style="fill: none; fill-opacity:0; stroke-width: 2; stroke: #000000" x="315.442" y="477.828" width="97.3" height="36"/>
    <text font-size="12.7998" style="fill: #000000;text-anchor:middle;font-family:monospace;font-style:normal;font-weight:normal" x="364.092" y="499.828">CLASSROOM</text>
  </g>
  <g>
    <rect style="fill: #ffffff" x="616.979" y="477.745" width="105" height="36"/>
    <rect style="fill: none; fill-opacity:0; stroke-width: 2; stroke: #000000" x="616.979" y="477.745" width="105" height="36"/>
    <text font-size="12.7998" style="fill: #000000;text-anchor:middle;font-family:monospace;font-style:normal;font-weight:normal" x="669.479" y="499.745">ASSIGNMENT</text>
  </g>
  <g>
    <rect style="fill: #ffffff" x="334.697" y="638.94" width="58.8" height="36"/>
    <rect style="fill: none; fill-opacity:0; stroke-width: 2; stroke: #000000" x="334.697" y="638.94" width="58.8" height="36"/>
    <text font-size="12.7998" style="fill: #000000;text-anchor:middle;font-family:monospace;font-style:normal;font-weight:normal" x="364.097" y="660.94">USER</text>
  </g>
  <g>
    <rect style="fill: #ffffff" x="29.2933" y="477.81" width="120.4" height="36"/>
    <rect style="fill: none; fill-opacity:0; stroke-width: 2; stroke: #000000" x="29.2933" y="477.81" width="120.4" height="36"/>
    <text font-size="12.7998" style="fill: #000000;text-anchor:middle;font-family:monospace;font-style:normal;font-weight:normal" x="89.4933" y="499.81">ORGANIZATION</text>
  </g>
  <g>
    <polygon style="fill: #ffffff" points="478.626,495.75 510.176,476.82 541.726,495.75 510.176,514.68 "/>
    <polygon style="fill: none; fill-opacity:0; stroke-width: 2; stroke: #000000" points="478.626,495.75 510.176,476.82 541.726,495.75 510.176,514.68 "/>
    <text font-size="12.7998" style="fill: #000000;text-anchor:end;font-family:monospace;font-style:normal;font-weight:normal" x="472.626" y="489.75">1</text>
    <text font-size="12.7998" style="fill: #000000;text-anchor:start;font-family:monospace;font-style:normal;font-weight:normal" x="547.726" y="489.75">N</text>
    <text font-size="12.7998" style="fill: #000000;text-anchor:middle;font-family:monospace;font-style:normal;font-weight:normal" x="510.176" y="499.75">has</text>
  </g>
  <polyline style="fill: none; fill-opacity:0; stroke-width: 2; stroke: #000000" points="413.748,495.828 445.691,495.828 445.691,495.75 477.634,495.75 "/>
  <g>
    <polyline style="fill: none; fill-opacity:0; stroke-width: 2; stroke: #000000" points="615.993,498.245 611.875,498.245 611.875,498.25 542.732,498.25 "/>
    <polyline style="fill: none; fill-opacity:0; stroke-width: 2; stroke: #000000" points="615.993,493.245 606.875,493.245 606.875,493.25 542.732,493.25 "/>
  </g>
  <g>
    <polygon style="fill: #ffffff" points="206.588,495.783 238.138,476.853 269.688,495.783 238.138,514.713 "/>
    <polygon style="fill: none; fill-opacity:0; stroke-width: 2; stroke: #000000" points="206.588,495.783 238.138,476.853 269.688,495.783 238.138,514.713 "/>
    <text font-size="12.7998" style="fill: #000000;text-anchor:end;font-family:monospace;font-style:normal;font-weight:normal" x="200.588" y="489.783">1</text>
    <text font-size="12.7998" style="fill: #000000;text-anchor:start;font-family:monospace;font-style:normal;font-weight:normal" x="275.688" y="489.783">N</text>
    <text font-size="12.7998" style="fill: #000000;text-anchor:middle;font-family:monospace;font-style:normal;font-weight:normal" x="238.138" y="499.783">has</text>
  </g>
  <g>
    <polygon style="fill: #ffffff" points="332.571,573.065 364.121,554.135 395.671,573.065 364.121,591.995 "/>
    <polygon style="fill: none; fill-opacity:0; stroke-width: 2; stroke: #000000" points="332.571,573.065 364.121,554.135 395.671,573.065 364.121,591.995 "/>
    <text font-size="12.7998" style="fill: #000000;text-anchor:start;font-family:monospace;font-style:normal;font-weight:normal" x="368.121" y="548.135">N</text>
    <text font-size="12.7998" style="fill: #000000;text-anchor:start;font-family:monospace;font-style:normal;font-weight:normal" x="368.121" y="613.995">N</text>
    <text font-size="12.7998" style="fill: #000000;text-anchor:middle;font-family:monospace;font-style:normal;font-weight:normal" x="364.121" y="577.065">has</text>
  </g>
  <polyline style="fill: none; fill-opacity:0; stroke-width: 2; stroke: #000000" points="364.092,513.828 364.092,533.981 364.121,533.981 364.121,554.135 "/>
  <polyline style="fill: none; fill-opacity:0; stroke-width: 2; stroke: #000000" points="364.121,591.995 364.121,615.468 364.097,615.468 364.097,638.94 "/>
  <g>
    <ellipse style="fill: #ffffff" cx="295.485" cy="589.721" rx="35.4" ry="18"/>
    <ellipse style="fill: none; fill-opacity:0; stroke-width: 2; stroke: #000000" cx="295.485" cy="589.721" rx="35.4" ry="18"/>
    <text font-size="12.7998" style="fill: #000000;text-anchor:middle;font-family:monospace;font-style:normal;font-weight:normal" x="295.485" y="593.721">type</text>
  </g>
  <line style="fill: none; fill-opacity:0; stroke-width: 2; stroke: #000000" x1="330.64" y1="584.939" x2="348.346" y2="582.53"/>
  <g>
    <polygon style="fill: #ffffff" points="478.585,656.937 510.135,638.007 541.685,656.937 510.135,675.867 "/>
    <polygon style="fill: none; fill-opacity:0; stroke-width: 2; stroke: #000000" points="478.585,656.937 510.135,638.007 541.685,656.937 510.135,675.867 "/>
    <text font-size="12.7998" style="fill: #000000;text-anchor:end;font-family:monospace;font-style:normal;font-weight:normal" x="472.585" y="650.937">N</text>
    <text font-size="12.7998" style="fill: #000000;text-anchor:start;font-family:monospace;font-style:normal;font-weight:normal" x="547.685" y="650.937">N</text>
    <text font-size="12.7998" style="fill: #000000;text-anchor:middle;font-family:monospace;font-style:normal;font-weight:normal" x="510.135" y="660.937">has</text>
  </g>
  <polyline style="fill: none; fill-opacity:0; stroke-width: 2; stroke: #000000" points="393.497,656.94 435.545,656.94 435.545,656.937 477.593,656.937 "/>
  <polyline style="fill: none; fill-opacity:0; stroke-width: 2; stroke: #000000" points="541.685,656.937 541.685,657.628 669.479,657.628 669.479,513.745 "/>
  <text font-size="9.03111" style="fill: #000000;text-anchor:start;font-family:sans-serif;font-style:oblique;font-weight:normal" x="31.3935" y="474.914">
    <tspan x="31.3935" y="474.914">From GitHub...</tspan>
  </text>
  <g>
    <ellipse style="fill: #ffffff" cx="333.13" cy="400.415" rx="31.55" ry="18"/>
    <ellipse style="fill: none; fill-opacity:0; stroke-width: 2; stroke: #000000" cx="333.13" cy="400.415" rx="31.55" ry="18"/>
    <text font-size="12.7998" style="fill: #000000;text-anchor:middle;font-family:monospace;font-style:normal;font-weight:normal" x="333.13" y="404.415">cid</text>
    <line style="fill: none; fill-opacity:0; stroke-width: 2; stroke: #000000" x1="321.58" y1="408.415" x2="344.68" y2="408.415"/>
  </g>
  <g>
    <ellipse style="fill: #ffffff" cx="424.979" cy="402.199" rx="35.4" ry="18"/>
    <ellipse style="fill: none; fill-opacity:0; stroke-width: 2; stroke: #000000" cx="424.979" cy="402.199" rx="35.4" ry="18"/>
    <text font-size="12.7998" style="fill: #000000;text-anchor:middle;font-family:monospace;font-style:normal;font-weight:normal" x="424.979" y="406.199">name</text>
  </g>
  <g>
    <ellipse style="fill: #ffffff" cx="279.502" cy="442.63" rx="62.35" ry="18"/>
    <ellipse style="fill: none; fill-opacity:0; stroke-width: 2; stroke: #000000" cx="279.502" cy="442.63" rx="62.35" ry="18"/>
    <text font-size="12.7998" style="fill: #000000;text-anchor:middle;font-family:monospace;font-style:normal;font-weight:normal" x="279.502" y="446.63">description</text>
  </g>
  <g>
    <ellipse style="fill: #ffffff" cx="443.881" cy="693.369" rx="43.1" ry="18"/>
    <ellipse style="fill: none; fill-opacity:0; stroke-width: 2; stroke: #000000" cx="443.881" cy="693.369" rx="43.1" ry="18"/>
    <text font-size="12.7998" style="fill: #000000;text-anchor:middle;font-family:monospace;font-style:normal;font-weight:normal" x="443.881" y="697.369">avatar</text>
  </g>
  <g>
    <ellipse style="fill: #ffffff" cx="384.552" cy="365.74" rx="46.95" ry="18"/>
    <ellipse style="fill: none; fill-opacity:0; stroke-width: 2; stroke: #000000" cx="384.552" cy="365.74" rx="46.95" ry="18"/>
    <text font-size="12.7998" style="fill: #000000;text-anchor:middle;font-family:monospace;font-style:normal;font-weight:normal" x="384.552" y="369.74">picture</text>
  </g>
  <line style="fill: none; fill-opacity:0; stroke-width: 2; stroke: #000000" x1="339.181" y1="419.062" x2="357.984" y2="477.006"/>
  <line style="fill: none; fill-opacity:0; stroke-width: 2; stroke: #000000" x1="381.573" y1="384.685" x2="367.08" y2="476.828"/>
  <line style="fill: none; fill-opacity:0; stroke-width: 2; stroke: #000000" x1="413.317" y1="420.131" x2="375.984" y2="477.541"/>
  <line style="fill: none; fill-opacity:0; stroke-width: 2; stroke: #000000" x1="306.36" y1="459.52" x2="333.94" y2="476.866"/>
  <polyline style="fill: none; fill-opacity:0; stroke-width: 2; stroke: #000000" points="150.701,495.81 178.644,495.81 178.644,495.783 206.588,495.783 "/>
  <polyline style="fill: none; fill-opacity:0; stroke-width: 2; stroke: #000000" points="315.442,495.828 292.565,495.828 292.565,495.783 269.688,495.783 "/>
  <line style="fill: none; fill-opacity:0; stroke-width: 2; stroke: #000000" x1="394.493" y1="670.819" x2="413.874" y2="679.668"/>
  <g>
    <ellipse style="fill: #ffffff" cx="803.114" cy="399.331" rx="31.55" ry="18"/>
    <ellipse style="fill: none; fill-opacity:0; stroke-width: 2; stroke: #000000" cx="803.114" cy="399.331" rx="31.55" ry="18"/>
    <text font-size="12.7998" style="fill: #000000;text-anchor:middle;font-family:monospace;font-style:normal;font-weight:normal" x="803.114" y="403.331">iid</text>
    <line style="fill: none; fill-opacity:0; stroke-width: 2; stroke: #000000" x1="791.564" y1="407.331" x2="814.664" y2="407.331"/>
  </g>
  <g>
    <ellipse style="fill: #ffffff" cx="807.228" cy="439.229" rx="35.4" ry="18"/>
    <ellipse style="fill: none; fill-opacity:0; stroke-width: 2; stroke: #000000" cx="807.228" cy="439.229" rx="35.4" ry="18"/>
    <text font-size="12.7998" style="fill: #000000;text-anchor:middle;font-family:monospace;font-style:normal;font-weight:normal" x="807.228" y="443.229">name</text>
  </g>
  <g>
    <ellipse style="fill: #ffffff" cx="883.476" cy="466.008" rx="62.35" ry="18"/>
    <ellipse style="fill: none; fill-opacity:0; stroke-width: 2; stroke: #000000" cx="883.476" cy="466.008" rx="62.35" ry="18"/>
    <text font-size="12.7998" style="fill: #000000;text-anchor:middle;font-family:monospace;font-style:normal;font-weight:normal" x="883.476" y="470.008">description</text>
  </g>
  <g>
    <ellipse style="fill: #ffffff" cx="846.678" cy="536.525" rx="62.35" ry="18"/>
    <ellipse style="fill: none; fill-opacity:0; stroke-width: 2; stroke: #000000" cx="846.678" cy="536.525" rx="62.35" ry="18"/>
    <text font-size="12.7998" style="fill: #000000;text-anchor:middle;font-family:monospace;font-style:normal;font-weight:normal" x="846.678" y="540.525">repo_prefix</text>
  </g>
  <g>
    <ellipse style="fill: #ffffff" cx="794.624" cy="501.481" rx="35.4" ry="18"/>
    <ellipse style="fill: none; fill-opacity:0; stroke-width: 2; stroke: #000000" cx="794.624" cy="501.481" rx="35.4" ry="18"/>
    <text font-size="12.7998" style="fill: #000000;text-anchor:middle;font-family:monospace;font-style:normal;font-weight:normal" x="794.624" y="505.481">type</text>
  </g>
  <g>
    <ellipse style="fill: #ffffff" cx="774.326" cy="567.626" rx="50.8" ry="18"/>
    <ellipse style="fill: none; fill-opacity:0; stroke-width: 2; stroke: #000000" cx="774.326" cy="567.626" rx="50.8" ry="18"/>
    <text font-size="12.7998" style="fill: #000000;text-anchor:middle;font-family:monospace;font-style:normal;font-weight:normal" x="774.326" y="571.626">template</text>
  </g>
  <line style="fill: none; fill-opacity:0; stroke-width: 2; stroke: #000000" x1="758.373" y1="499.82" x2="722.985" y2="498.198"/>
  <line style="fill: none; fill-opacity:0; stroke-width: 2; stroke: #000000" x1="750.367" y1="551.2" x2="697.188" y2="514.742"/>
  <line style="fill: none; fill-opacity:0; stroke-width: 2; stroke: #000000" x1="796.96" y1="525.083" x2="722.972" y2="508.056"/>
  <line style="fill: none; fill-opacity:0; stroke-width: 2; stroke: #000000" x1="782.739" y1="414.031" x2="695.71" y2="476.82"/>
  <line style="fill: none; fill-opacity:0; stroke-width: 2; stroke: #000000" x1="778.76" y1="450.909" x2="715.787" y2="476.746"/>
  <line style="fill: none; fill-opacity:0; stroke-width: 2; stroke: #000000" x1="826.306" y1="473.953" x2="722.984" y2="488.31"/>
  <g>
    <rect style="fill: #ffffff" x="624.627" y="285.993" width="89.6" height="36"/>
    <rect style="fill: none; fill-opacity:0; stroke-width: 2; stroke: #000000" x="624.627" y="285.993" width="89.6" height="36"/>
    <rect style="fill: none; fill-opacity:0; stroke-width: 2; stroke: #000000" x="629.627" y="290.993" width="79.6" height="26"/>
    <text font-size="12.7998" style="fill: #000000;text-anchor:middle;font-family:monospace;font-style:normal;font-weight:normal" x="669.427" y="307.993">DELIVERY</text>
  </g>
  <g>
    <polygon style="fill: #ffffff" points="637.876,387.663 669.426,368.733 700.976,387.663 669.426,406.593 "/>
    <polygon style="fill: none; fill-opacity:0; stroke-width: 2; stroke: #000000" points="637.876,387.663 669.426,368.733 700.976,387.663 669.426,406.593 "/>
    <text font-size="12.7998" style="fill: #000000;text-anchor:start;font-family:monospace;font-style:normal;font-weight:normal" x="673.426" y="362.733">N</text>
    <text font-size="12.7998" style="fill: #000000;text-anchor:start;font-family:monospace;font-style:normal;font-weight:normal" x="673.426" y="428.593">1</text>
    <text font-size="12.7998" style="fill: #000000;text-anchor:middle;font-family:monospace;font-style:normal;font-weight:normal" x="669.426" y="391.663">has</text>
  </g>
  <g>
    <polyline style="fill: none; fill-opacity:0; stroke-width: 2; stroke: #000000" points="666.926,368.733 666.926,342.863 666.927,342.863 666.927,321.993 "/>
    <polyline style="fill: none; fill-opacity:0; stroke-width: 2; stroke: #000000" points="671.926,368.733 671.926,347.863 671.927,347.863 671.927,321.993 "/>
  </g>
  <polyline style="fill: none; fill-opacity:0; stroke-width: 2; stroke: #000000" points="669.426,406.593 669.426,441.665 669.479,441.665 669.479,476.736 "/>
  <g>
    <ellipse style="fill: #ffffff" cx="621.254" cy="247.506" rx="31.55" ry="18"/>
    <ellipse style="fill: none; fill-opacity:0; stroke-width: 2; stroke: #000000" cx="621.254" cy="247.506" rx="31.55" ry="18"/>
    <text font-size="12.7998" style="fill: #000000;text-anchor:middle;font-family:monospace;font-style:normal;font-weight:normal" x="621.254" y="251.506">tag</text>
    <line style="fill: none; fill-opacity:0; stroke-width: 2; stroke-dasharray: 6; stroke: #000000" x1="609.704" y1="255.506" x2="632.804" y2="255.506"/>
  </g>
  <g>
    <ellipse style="fill: #ffffff" cx="718.855" cy="249.039" rx="50.8" ry="18"/>
    <ellipse style="fill: none; fill-opacity:0; stroke-width: 2; stroke: #000000" cx="718.855" cy="249.039" rx="50.8" ry="18"/>
    <text font-size="12.7998" style="fill: #000000;text-anchor:middle;font-family:monospace;font-style:normal;font-weight:normal" x="718.855" y="253.039">due_date</text>
  </g>
  <line style="fill: none; fill-opacity:0; stroke-width: 2; stroke: #000000" x1="635.702" y1="264.448" x2="653.232" y2="285.003"/>
  <line style="fill: none; fill-opacity:0; stroke-width: 2; stroke: #000000" x1="702.769" y1="266.923" x2="686.52" y2="284.988"/>
  <g>
    <ellipse style="fill: #ffffff" cx="391.588" cy="724.919" rx="35.4" ry="18"/>
    <ellipse style="fill: none; fill-opacity:0; stroke-width: 2; stroke: #000000" cx="391.588" cy="724.919" rx="35.4" ry="18"/>
    <text font-size="12.7998" style="fill: #000000;text-anchor:middle;font-family:monospace;font-style:normal;font-weight:normal" x="391.588" y="728.919">name</text>
  </g>
  <g>
    <ellipse style="fill: #ffffff" cx="338.415" cy="756.796" rx="31.55" ry="18"/>
    <ellipse style="fill: none; fill-opacity:0; stroke-width: 2; stroke: #000000" cx="338.415" cy="756.796" rx="31.55" ry="18"/>
    <text font-size="12.7998" style="fill: #000000;text-anchor:middle;font-family:monospace;font-style:normal;font-weight:normal" x="338.415" y="760.796">uid</text>
    <line style="fill: none; fill-opacity:0; stroke-width: 2; stroke: #000000" x1="326.865" y1="764.796" x2="349.965" y2="764.796"/>
  </g>
  <line style="fill: none; fill-opacity:0; stroke-width: 2; stroke: #000000" x1="343.246" y1="738.012" x2="359.219" y2="675.907"/>
  <line style="fill: none; fill-opacity:0; stroke-width: 2; stroke: #000000" x1="384.081" y1="706.356" x2="371.782" y2="675.943"/>
  <g>
    <ellipse style="fill: #ffffff" cx="303.91" cy="720.7" rx="39.25" ry="18"/>
    <ellipse style="fill: none; fill-opacity:0; stroke-width: 2; stroke: #000000" cx="303.91" cy="720.7" rx="39.25" ry="18"/>
    <text font-size="12.7998" style="fill: #000000;text-anchor:middle;font-family:monospace;font-style:normal;font-weight:normal" x="303.91" y="724.7">gh_id</text>
  </g>
  <line style="fill: none; fill-opacity:0; stroke-width: 2; stroke: #000000" x1="320.162" y1="703.483" x2="346.163" y2="675.939"/>
  <g>
    <ellipse style="fill: #ffffff" cx="266.972" cy="679.745" rx="50.8" ry="18"/>
    <ellipse style="fill: none; fill-opacity:0; stroke-width: 2; stroke: #000000" cx="266.972" cy="679.745" rx="50.8" ry="18"/>
    <text font-size="12.7998" style="fill: #000000;text-anchor:middle;font-family:monospace;font-style:normal;font-weight:normal" x="266.972" y="683.745">gh_token</text>
  </g>
  <line style="fill: none; fill-opacity:0; stroke-width: 2; stroke: #000000" x1="310.282" y1="669.576" x2="333.692" y2="664.079"/>
</svg>
